<?xml version="1.0" encoding="utf-8"?>
<!-- Generator: Adobe Illustrator 24.1.0, SVG Export Plug-In . SVG Version: 6.00 Build 0)  -->
<svg version="1.1" id="Layer_1" xmlns="http://www.w3.org/2000/svg" xmlns:xlink="http://www.w3.org/1999/xlink" x="0px" y="0px"
	 viewBox="0 0 192 192" enable-background="new 0 0 192 192" xml:space="preserve">
<g>
	<path fill="#F3923B" d="M32,151.1L32,151.1c0-12.4,10.1-22.5,22.5-22.5h51c12.4,0,22.5,10.1,22.5,22.5v0
		c0,12.4-10.1,22.5-22.5,22.5h-51C42.1,173.6,32,163.6,32,151.1z"/>
	<path fill="#E97534" d="M32,96L32,96c0-12.4,10.1-22.5,22.5-22.5l83,0c12.4,0,22.5,10.1,22.5,22.5v0c0,12.4-10.1,22.5-22.5,22.5
		l-83,0C42.1,118.5,32,108.4,32,96z"/>
	<path fill="#455A65" d="M160,40.9L160,40.9c0,12.4-10.1,22.5-22.5,22.5l-83,0C42.1,63.4,32,53.3,32,40.9v0
		c0-12.4,10.1-22.5,22.5-22.5l83,0C149.9,18.4,160,28.4,160,40.9z"/>
</g>
</svg>
